<svg width="22" height="20" viewBox="0 0 22 20" fill="none" xmlns="http://www.w3.org/2000/svg">
<path fill-rule="evenodd" clip-rule="evenodd" d="M10.6896 0C4.78649 0 0 4.58024 0 10.2305C0 14.7504 3.06307 18.5852 7.31001 19.938C7.84446 20.0328 8.04073 19.7161 8.04073 19.446C8.04073 19.202 8.03082 18.396 8.026 17.5411C5.05215 18.1601 4.42481 16.3342 4.42481 16.3342C3.93837 15.1519 3.23782 14.8373 3.23782 14.8373C2.26778 14.2023 3.31089 14.2152 3.31089 14.2152C4.38431 14.2876 4.94934 15.2696 4.94934 15.2696C5.90296 16.8336 7.45021 16.3815 8.06027 16.1201C8.15629 15.459 8.43314 15.0074 8.73888 14.752C6.36461 14.4937 3.86884 13.6163 3.86884 9.69623C3.86884 8.57946 4.28631 7.66666 4.97002 6.95039C4.85913 6.69261 4.49321 5.65201 5.07382 4.2429C5.07382 4.2429 5.97135 3.96778 8.01368 5.2915C8.86661 5.06489 9.781 4.95132 10.6894 4.94725C11.5979 4.95132 12.5131 5.06489 13.3673 5.2915C15.4077 3.96791 16.3041 4.24277 16.3041 4.24277C16.8858 5.65174 16.52 6.69234 16.4089 6.94998C17.0943 7.66639 17.5089 8.57905 17.5089 9.69582C17.5089 13.6255 15.0083 14.4905 12.6281 14.7438C13.0115 15.0615 13.3532 15.6839 13.3532 16.6385C13.3532 18.0073 13.341 19.1092 13.341 19.446C13.341 19.7184 13.5332 20.0372 14.075 19.9369C18.3205 18.5827 21.3793 14.7492 21.3793 10.2306C21.3793 4.58024 16.5927 0 10.6896 0Z" fill="#FEFEFE"/>
<path d="M4.05006 14.688C4.02641 14.739 3.94286 14.7544 3.86681 14.7192C3.78893 14.6858 3.74573 14.6165 3.7708 14.5655C3.79388 14.5133 3.87743 14.4988 3.9549 14.5336C4.0325 14.5671 4.07668 14.6371 4.05006 14.688ZM4.48184 15.1504C4.43086 15.1957 4.33102 15.1748 4.26376 15.1033C4.19352 15.0319 4.18063 14.9363 4.23232 14.8905C4.28472 14.8454 4.38158 14.8665 4.45139 14.9379C4.52149 15.01 4.53523 15.1046 4.48184 15.1504ZM4.90328 15.74C4.83772 15.7838 4.73052 15.743 4.66424 15.6519C4.59867 15.5608 4.59867 15.4517 4.66566 15.408C4.73222 15.3643 4.83772 15.4039 4.90498 15.4939C4.97013 15.5865 4.97013 15.6954 4.90328 15.74ZM5.48206 16.3094C5.42343 16.3712 5.29867 16.3545 5.20733 16.2701C5.11386 16.1877 5.08781 16.0706 5.14644 16.0088C5.20591 15.9468 5.33138 15.964 5.42343 16.0481C5.51619 16.1302 5.54437 16.2481 5.48206 16.3094ZM6.27864 16.6397C6.25258 16.7196 6.13278 16.7562 6.01155 16.7219C5.89048 16.687 5.81131 16.5932 5.83595 16.5123C5.86088 16.4316 5.98182 16.3937 6.1036 16.4301C6.2244 16.465 6.30385 16.5582 6.27864 16.6397ZM7.1531 16.7007C7.15594 16.7851 7.05341 16.8552 6.92652 16.8565C6.7985 16.8592 6.69498 16.7909 6.69357 16.708C6.69357 16.6226 6.79411 16.5535 6.92157 16.5514C7.04902 16.5487 7.1531 16.6169 7.1531 16.7005M7.96738 16.5685C7.98254 16.6506 7.89431 16.7352 7.76799 16.7577C7.64394 16.7797 7.52909 16.7287 7.51337 16.6473C7.49779 16.5628 7.58772 16.4784 7.71163 16.4566C7.83809 16.4354 7.95124 16.4849 7.96738 16.5685Z" fill="#FEFEFE"/>
</svg>
