<svg width="1199" height="369" viewBox="0 0 1199 369" preserveAspectRatio="none" fill="none" xmlns="http://www.w3.org/2000/svg">
<path d="M6.65609 57.856V5.12H115.2V312.32C115.2 346.112 91.6481 368.64 57.3441 368.64C22.5281 368.64 9.01222e-05 346.112 9.01222e-05 312.32V103.424H50.1761V303.616C50.1761 314.88 53.2481 317.44 56.3201 317.44C59.9041 317.44 62.9761 314.88 62.9761 303.616V57.856H6.65609ZM242.236 56.32V312.32C242.236 346.112 217.66 368.64 182.844 368.64C148.54 368.64 125.5 346.112 125.5 312.32V56.32C125.5 22.528 149.052 0 183.868 0C218.172 0 242.236 22.528 242.236 56.32ZM190.524 65.024C190.524 53.76 187.452 51.2 183.868 51.2C180.284 51.2 176.7 53.76 176.7 65.024V303.616C176.7 314.88 180.284 317.44 183.868 317.44C187.452 317.44 190.524 314.88 190.524 303.616V65.024ZM302.2 65.024V112.64C302.2 136.704 304.76 138.752 327.288 150.016C355.448 164.352 363.64 179.2 363.64 220.16V312.32C363.64 346.112 340.088 368.64 306.296 368.64C273.016 368.64 251.512 346.112 251.512 312.32V209.92H301.688V303.616C301.688 314.88 303.736 317.44 306.808 317.44C310.392 317.44 312.952 314.88 312.952 303.616V217.088C312.952 208.384 310.904 204.288 290.936 192.512C266.36 178.176 251.512 161.28 251.512 122.368V56.32C251.512 22.528 275.064 0 308.856 0C342.136 0 363.64 22.528 363.64 56.32V128H313.464V65.024C313.464 53.76 311.416 51.2 308.856 51.2C304.76 51.2 302.2 53.76 302.2 65.024ZM375.024 363.52V5.12H460.528V51.2H426.224V120.832H460.528V166.912H426.224V317.44H460.528V363.52H375.024ZM522.2 363.52H472.024V5.12H529.368C570.328 5.12 586.2 19.456 586.2 57.856V122.88C586.2 161.28 569.304 182.272 537.56 182.272H522.2V363.52ZM535.512 117.76V67.584C535.512 57.856 533.464 56.32 522.2 56.32V128.512C533.464 128.512 535.512 126.976 535.512 117.76ZM664.084 363.52V168.448H648.724V363.52H597.524V5.12H648.724V117.248H664.084V5.12H715.284V363.52H664.084ZM844.164 5.12V313.856H878.468V363.52H792.964V5.12H844.164ZM938.164 5.12V363.52H886.964V5.12H938.164ZM1004.25 277.504L1002.71 363.52H946.392L969.944 5.12H1051.35L1074.9 363.52H1018.58L1017.05 277.504H1004.25ZM1004.76 227.84H1016.54L1013.98 78.336H1007.32L1004.76 227.84ZM1198.68 56.32V312.32C1198.68 346.112 1174.1 368.64 1139.28 368.64C1104.98 368.64 1081.94 346.112 1081.94 312.32V56.32C1081.94 22.528 1105.49 0 1140.31 0C1174.61 0 1198.68 22.528 1198.68 56.32ZM1146.96 65.024C1146.96 53.76 1143.89 51.2 1140.31 51.2C1136.72 51.2 1133.14 53.76 1133.14 65.024V303.616C1133.14 314.88 1136.72 317.44 1140.31 317.44C1143.89 317.44 1146.96 314.88 1146.96 303.616V65.024Z" fill="white"/>
</svg>
